<?xml version="1.0" standalone="no"?>
<!DOCTYPE svg PUBLIC "-//W3C//DTD SVG 20010904//EN"
 "http://www.w3.org/TR/2001/REC-SVG-20010904/DTD/svg10.dtd">
<svg version="1.0" xmlns="http://www.w3.org/2000/svg"
 width="240.000000pt" height="240.000000pt" viewBox="0 0 240.000000 240.000000"
 preserveAspectRatio="xMidYMid meet">

<g transform="translate(0.000000,240.000000) scale(0.100000,-0.100000)"
fill="#000000" stroke="none">
<path d="M1115 1801 c-88 -23 -149 -76 -191 -166 -44 -94 -19 -183 55 -200 61
-13 161 69 161 133 0 52 66 59 110 12 39 -42 43 -70 20 -133 -16 -42 -28 -58
-50 -67 -36 -15 -95 -72 -102 -98 -7 -25 15 -87 39 -114 40 -44 102 -59 188
-44 105 17 177 -127 112 -225 -26 -39 -97 -79 -142 -79 -72 0 -191 53 -218 97
-11 18 -37 5 -29 -15 5 -15 3 -15 -11 -4 -14 12 -15 10 -10 -22 6 -36 -9 -51
-21 -21 -8 21 -27 19 -20 -2 5 -15 3 -15 -10 1 -9 11 -16 14 -16 7 0 -7 -4 -9
-10 -6 -14 9 -13 3 10 -49 27 -65 107 -141 186 -178 60 -28 71 -30 147 -26
184 11 314 105 367 264 60 180 -21 386 -185 469 -30 15 -58 31 -60 35 -3 4 3
23 12 41 11 22 17 58 17 100 0 75 -32 148 -91 211 -61 63 -180 100 -258 79z"/>
<path d="M593 1150 c-67 -27 -56 -147 17 -185 49 -25 121 15 135 76 17 75 -73
141 -152 109z"/>
<path d="M675 810 c-31 -12 -42 -30 -49 -80 -6 -49 5 -71 56 -104 22 -15 31
-15 67 -4 22 7 41 18 41 24 0 6 7 17 15 24 35 29 11 109 -41 134 -38 18 -58
19 -89 6z"/>
</g>
</svg>
